<?xml version="1.0" encoding="UTF-8"?><svg xmlns="http://www.w3.org/2000/svg" xmlns:xlink="http://www.w3.org/1999/xlink" width="375pt" zoomAndPan="magnify" viewBox="0 0 375 374.999991" height="374.999991pt" preserveAspectRatio="xMidYMid meet" version="1.2"><defs><g/><clipPath xml:id="clip1" id="clip1"><path d="M 140.859375 97.777344 L 233.859375 97.777344 L 233.859375 201.277344 L 140.859375 201.277344 Z M 140.859375 97.777344 "/></clipPath><clipPath xml:id="clip2" id="clip2"><path d="M 187 97.777344 L 233.859375 97.777344 L 233.859375 201.277344 L 187 201.277344 Z M 187 97.777344 "/></clipPath></defs><g xml:id="surface1" id="surface1"><rect x="0" width="375" y="0" height="374.999991" style="fill:rgb(100%,100%,100%);fill-opacity:1;stroke:none;"/><rect x="0" width="375" y="0" height="374.999991" style="fill:rgb(100%,100%,100%);fill-opacity:1;stroke:none;"/><rect x="0" width="375" y="0" height="374.999991" style="fill:rgb(9.408569%,4.708862%,26.669312%);fill-opacity:1;stroke:none;"/><g clip-rule="nonzero" clip-path="url(#clip1)"><path style=" stroke:none;fill-rule:nonzero;fill:rgb(0%,29.019165%,67.83905%);fill-opacity:1;" d="M 233.832031 115.890625 L 233.832031 154.835938 C 232.457031 189.679688 187.347656 201.300781 187.347656 201.300781 C 187.347656 201.300781 142.238281 189.679688 140.886719 154.835938 L 140.886719 115.890625 L 187.347656 97.792969 Z M 233.832031 115.890625 "/></g><g clip-rule="nonzero" clip-path="url(#clip2)"><path style=" stroke:none;fill-rule:nonzero;fill:rgb(21.958923%,71.369934%,100%);fill-opacity:1;" d="M 233.832031 115.890625 L 233.832031 154.835938 C 232.457031 189.679688 187.347656 201.300781 187.347656 201.300781 L 187.347656 97.792969 Z M 233.832031 115.890625 "/></g><path style=" stroke:none;fill-rule:nonzero;fill:rgb(21.958923%,71.369934%,100%);fill-opacity:1;" d="M 221.621094 124.734375 L 221.621094 153.445312 C 220.609375 179.136719 187.351562 187.703125 187.351562 187.703125 C 187.351562 187.703125 154.09375 179.136719 153.09375 153.445312 L 153.09375 124.734375 L 187.351562 111.390625 Z M 221.621094 124.734375 "/><path style=" stroke:none;fill-rule:nonzero;fill:rgb(0%,29.019165%,67.83905%);fill-opacity:1;" d="M 221.621094 124.734375 L 221.621094 153.445312 C 220.609375 179.136719 187.351562 187.703125 187.351562 187.703125 L 187.351562 111.390625 Z M 221.621094 124.734375 "/><g style="fill:rgb(100%,100%,100%);fill-opacity:1;"><g transform="translate(116.002335, 238.181347)"><path style="stroke:none;" d="M 19.34375 -4.6875 L 19.34375 0 L 2.140625 0 L 2.140625 -21.421875 L 18.953125 -21.421875 L 18.953125 -16.75 L 8.140625 -16.75 L 8.140625 -13.125 L 17.65625 -13.125 L 17.65625 -8.59375 L 8.140625 -8.59375 L 8.140625 -4.6875 Z M 19.34375 -4.6875 "/></g></g><g style="fill:rgb(100%,100%,100%);fill-opacity:1;"><g transform="translate(136.571306, 238.181347)"><path style="stroke:none;" d="M 7.890625 0.28125 C 6.503906 0.28125 5.140625 0.125 3.796875 -0.1875 C 2.453125 -0.507812 1.367188 -0.925781 0.546875 -1.4375 L 2.296875 -5.421875 C 3.046875 -4.953125 3.941406 -4.578125 4.984375 -4.296875 C 6.023438 -4.023438 7.054688 -3.890625 8.078125 -3.890625 C 9.015625 -3.890625 9.679688 -3.984375 10.078125 -4.171875 C 10.484375 -4.367188 10.6875 -4.648438 10.6875 -5.015625 C 10.6875 -5.390625 10.445312 -5.648438 9.96875 -5.796875 C 9.488281 -5.953125 8.726562 -6.101562 7.6875 -6.25 C 6.351562 -6.40625 5.222656 -6.613281 4.296875 -6.875 C 3.367188 -7.144531 2.566406 -7.632812 1.890625 -8.34375 C 1.222656 -9.0625 0.890625 -10.066406 0.890625 -11.359375 C 0.890625 -12.421875 1.203125 -13.363281 1.828125 -14.1875 C 2.460938 -15.007812 3.382812 -15.660156 4.59375 -16.140625 C 5.8125 -16.617188 7.269531 -16.859375 8.96875 -16.859375 C 10.175781 -16.859375 11.367188 -16.734375 12.546875 -16.484375 C 13.734375 -16.242188 14.722656 -15.898438 15.515625 -15.453125 L 13.78125 -11.515625 C 12.3125 -12.328125 10.71875 -12.734375 9 -12.734375 C 8.082031 -12.734375 7.410156 -12.625 6.984375 -12.40625 C 6.554688 -12.195312 6.34375 -11.921875 6.34375 -11.578125 C 6.34375 -11.179688 6.578125 -10.90625 7.046875 -10.75 C 7.515625 -10.601562 8.285156 -10.445312 9.359375 -10.28125 C 10.734375 -10.082031 11.867188 -9.847656 12.765625 -9.578125 C 13.660156 -9.316406 14.4375 -8.832031 15.09375 -8.125 C 15.757812 -7.425781 16.09375 -6.441406 16.09375 -5.171875 C 16.09375 -4.128906 15.773438 -3.191406 15.140625 -2.359375 C 14.515625 -1.535156 13.582031 -0.890625 12.34375 -0.421875 C 11.113281 0.046875 9.628906 0.28125 7.890625 0.28125 Z M 7.890625 0.28125 "/></g></g><g style="fill:rgb(100%,100%,100%);fill-opacity:1;"><g transform="translate(153.314204, 238.181347)"><path style="stroke:none;" d="M 12.3125 -16.859375 C 13.8125 -16.859375 15.179688 -16.503906 16.421875 -15.796875 C 17.660156 -15.097656 18.640625 -14.097656 19.359375 -12.796875 C 20.085938 -11.503906 20.453125 -10.003906 20.453125 -8.296875 C 20.453125 -6.578125 20.085938 -5.070312 19.359375 -3.78125 C 18.640625 -2.488281 17.660156 -1.488281 16.421875 -0.78125 C 15.179688 -0.0703125 13.8125 0.28125 12.3125 0.28125 C 10.363281 0.28125 8.820312 -0.300781 7.6875 -1.46875 L 7.6875 5.9375 L 1.859375 5.9375 L 1.859375 -16.59375 L 7.40625 -16.59375 L 7.40625 -14.9375 C 8.488281 -16.21875 10.125 -16.859375 12.3125 -16.859375 Z M 11.078125 -4.34375 C 12.097656 -4.34375 12.929688 -4.691406 13.578125 -5.390625 C 14.234375 -6.097656 14.5625 -7.066406 14.5625 -8.296875 C 14.5625 -9.515625 14.234375 -10.476562 13.578125 -11.1875 C 12.929688 -11.894531 12.097656 -12.25 11.078125 -12.25 C 10.054688 -12.25 9.21875 -11.894531 8.5625 -11.1875 C 7.914062 -10.476562 7.59375 -9.515625 7.59375 -8.296875 C 7.59375 -7.066406 7.914062 -6.097656 8.5625 -5.390625 C 9.21875 -4.691406 10.054688 -4.34375 11.078125 -4.34375 Z M 11.078125 -4.34375 "/></g></g><g style="fill:rgb(100%,100%,100%);fill-opacity:1;"><g transform="translate(174.587173, 238.181347)"><path style="stroke:none;" d="M 8.9375 -16.859375 C 11.6875 -16.859375 13.785156 -16.226562 15.234375 -14.96875 C 16.691406 -13.71875 17.421875 -11.800781 17.421875 -9.21875 L 17.421875 0 L 12 0 L 12 -2.140625 C 11.164062 -0.523438 9.53125 0.28125 7.09375 0.28125 C 5.8125 0.28125 4.703125 0.0546875 3.765625 -0.390625 C 2.828125 -0.847656 2.117188 -1.457031 1.640625 -2.21875 C 1.160156 -2.976562 0.921875 -3.851562 0.921875 -4.84375 C 0.921875 -6.40625 1.519531 -7.617188 2.71875 -8.484375 C 3.925781 -9.359375 5.785156 -9.796875 8.296875 -9.796875 L 11.59375 -9.796875 C 11.5 -11.546875 10.328125 -12.421875 8.078125 -12.421875 C 7.285156 -12.421875 6.476562 -12.289062 5.65625 -12.03125 C 4.84375 -11.78125 4.148438 -11.429688 3.578125 -10.984375 L 1.625 -14.9375 C 2.539062 -15.550781 3.65625 -16.023438 4.96875 -16.359375 C 6.289062 -16.691406 7.613281 -16.859375 8.9375 -16.859375 Z M 8.71875 -3.390625 C 9.394531 -3.390625 9.988281 -3.550781 10.5 -3.875 C 11.007812 -4.207031 11.375 -4.691406 11.59375 -5.328125 L 11.59375 -6.765625 L 9.09375 -6.765625 C 7.394531 -6.765625 6.546875 -6.203125 6.546875 -5.078125 C 6.546875 -4.566406 6.738281 -4.15625 7.125 -3.84375 C 7.519531 -3.539062 8.050781 -3.390625 8.71875 -3.390625 Z M 8.71875 -3.390625 "/></g></g><g style="fill:rgb(100%,100%,100%);fill-opacity:1;"><g transform="translate(193.809368, 238.181347)"><path style="stroke:none;" d="M 10.34375 0.28125 C 8.507812 0.28125 6.867188 -0.0820312 5.421875 -0.8125 C 3.972656 -1.550781 2.84375 -2.570312 2.03125 -3.875 C 1.226562 -5.1875 0.828125 -6.671875 0.828125 -8.328125 C 0.828125 -9.984375 1.226562 -11.457031 2.03125 -12.75 C 2.84375 -14.039062 3.972656 -15.046875 5.421875 -15.765625 C 6.867188 -16.492188 8.507812 -16.859375 10.34375 -16.859375 C 12.21875 -16.859375 13.835938 -16.457031 15.203125 -15.65625 C 16.578125 -14.851562 17.550781 -13.738281 18.125 -12.3125 L 13.625 -10.015625 C 12.863281 -11.503906 11.757812 -12.25 10.3125 -12.25 C 9.269531 -12.25 8.40625 -11.898438 7.71875 -11.203125 C 7.039062 -10.503906 6.703125 -9.546875 6.703125 -8.328125 C 6.703125 -7.078125 7.039062 -6.097656 7.71875 -5.390625 C 8.40625 -4.691406 9.269531 -4.34375 10.3125 -4.34375 C 11.757812 -4.34375 12.863281 -5.085938 13.625 -6.578125 L 18.125 -4.28125 C 17.550781 -2.851562 16.578125 -1.734375 15.203125 -0.921875 C 13.835938 -0.117188 12.21875 0.28125 10.34375 0.28125 Z M 10.34375 0.28125 "/></g></g><g style="fill:rgb(100%,100%,100%);fill-opacity:1;"><g transform="translate(212.266343, 238.181347)"><path style="stroke:none;" d="M 1.859375 -16.59375 L 7.6875 -16.59375 L 7.6875 0 L 1.859375 0 Z M 4.765625 -18.421875 C 3.703125 -18.421875 2.84375 -18.71875 2.1875 -19.3125 C 1.539062 -19.90625 1.21875 -20.640625 1.21875 -21.515625 C 1.21875 -22.390625 1.539062 -23.125 2.1875 -23.71875 C 2.84375 -24.3125 3.703125 -24.609375 4.765625 -24.609375 C 5.828125 -24.609375 6.6875 -24.328125 7.34375 -23.765625 C 8 -23.203125 8.328125 -22.484375 8.328125 -21.609375 C 8.328125 -20.691406 8 -19.929688 7.34375 -19.328125 C 6.6875 -18.722656 5.828125 -18.421875 4.765625 -18.421875 Z M 4.765625 -18.421875 "/></g></g><g style="fill:rgb(100%,100%,100%);fill-opacity:1;"><g transform="translate(221.846836, 238.181347)"><path style="stroke:none;" d="M 10.1875 0.28125 C 8.414062 0.28125 6.816406 -0.0820312 5.390625 -0.8125 C 3.960938 -1.550781 2.84375 -2.570312 2.03125 -3.875 C 1.226562 -5.1875 0.828125 -6.671875 0.828125 -8.328125 C 0.828125 -9.960938 1.226562 -11.429688 2.03125 -12.734375 C 2.84375 -14.035156 3.957031 -15.046875 5.375 -15.765625 C 6.789062 -16.492188 8.394531 -16.859375 10.1875 -16.859375 C 11.988281 -16.859375 13.601562 -16.492188 15.03125 -15.765625 C 16.457031 -15.046875 17.566406 -14.039062 18.359375 -12.75 C 19.160156 -11.457031 19.5625 -9.984375 19.5625 -8.328125 C 19.5625 -6.671875 19.160156 -5.1875 18.359375 -3.875 C 17.566406 -2.570312 16.457031 -1.550781 15.03125 -0.8125 C 13.601562 -0.0820312 11.988281 0.28125 10.1875 0.28125 Z M 10.1875 -4.34375 C 11.207031 -4.34375 12.046875 -4.691406 12.703125 -5.390625 C 13.359375 -6.097656 13.6875 -7.078125 13.6875 -8.328125 C 13.6875 -9.546875 13.359375 -10.503906 12.703125 -11.203125 C 12.046875 -11.898438 11.207031 -12.25 10.1875 -12.25 C 9.164062 -12.25 8.328125 -11.898438 7.671875 -11.203125 C 7.023438 -10.503906 6.703125 -9.546875 6.703125 -8.328125 C 6.703125 -7.078125 7.023438 -6.097656 7.671875 -5.390625 C 8.328125 -4.691406 9.164062 -4.34375 10.1875 -4.34375 Z M 10.1875 -4.34375 "/></g></g><g style="fill:rgb(100%,100%,100%);fill-opacity:1;"><g transform="translate(242.232156, 238.181347)"><path style="stroke:none;" d="M 7.890625 0.28125 C 6.503906 0.28125 5.140625 0.125 3.796875 -0.1875 C 2.453125 -0.507812 1.367188 -0.925781 0.546875 -1.4375 L 2.296875 -5.421875 C 3.046875 -4.953125 3.941406 -4.578125 4.984375 -4.296875 C 6.023438 -4.023438 7.054688 -3.890625 8.078125 -3.890625 C 9.015625 -3.890625 9.679688 -3.984375 10.078125 -4.171875 C 10.484375 -4.367188 10.6875 -4.648438 10.6875 -5.015625 C 10.6875 -5.390625 10.445312 -5.648438 9.96875 -5.796875 C 9.488281 -5.953125 8.726562 -6.101562 7.6875 -6.25 C 6.351562 -6.40625 5.222656 -6.613281 4.296875 -6.875 C 3.367188 -7.144531 2.566406 -7.632812 1.890625 -8.34375 C 1.222656 -9.0625 0.890625 -10.066406 0.890625 -11.359375 C 0.890625 -12.421875 1.203125 -13.363281 1.828125 -14.1875 C 2.460938 -15.007812 3.382812 -15.660156 4.59375 -16.140625 C 5.8125 -16.617188 7.269531 -16.859375 8.96875 -16.859375 C 10.175781 -16.859375 11.367188 -16.734375 12.546875 -16.484375 C 13.734375 -16.242188 14.722656 -15.898438 15.515625 -15.453125 L 13.78125 -11.515625 C 12.3125 -12.328125 10.71875 -12.734375 9 -12.734375 C 8.082031 -12.734375 7.410156 -12.625 6.984375 -12.40625 C 6.554688 -12.195312 6.34375 -11.921875 6.34375 -11.578125 C 6.34375 -11.179688 6.578125 -10.90625 7.046875 -10.75 C 7.515625 -10.601562 8.285156 -10.445312 9.359375 -10.28125 C 10.734375 -10.082031 11.867188 -9.847656 12.765625 -9.578125 C 13.660156 -9.316406 14.4375 -8.832031 15.09375 -8.125 C 15.757812 -7.425781 16.09375 -6.441406 16.09375 -5.171875 C 16.09375 -4.128906 15.773438 -3.191406 15.140625 -2.359375 C 14.515625 -1.535156 13.582031 -0.890625 12.34375 -0.421875 C 11.113281 0.046875 9.628906 0.28125 7.890625 0.28125 Z M 7.890625 0.28125 "/></g></g><g style="fill:rgb(100%,100%,100%);fill-opacity:1;"><g transform="translate(121.037554, 270.160749)"><path style="stroke:none;" d="M 9.671875 0.421875 C 7.941406 0.421875 6.257812 0.207031 4.625 -0.21875 C 2.988281 -0.644531 1.660156 -1.210938 0.640625 -1.921875 L 2.625 -6.390625 C 3.59375 -5.765625 4.707031 -5.253906 5.96875 -4.859375 C 7.226562 -4.472656 8.472656 -4.28125 9.703125 -4.28125 C 12.023438 -4.28125 13.1875 -4.863281 13.1875 -6.03125 C 13.1875 -6.644531 12.851562 -7.097656 12.1875 -7.390625 C 11.53125 -7.691406 10.46875 -8.003906 9 -8.328125 C 7.382812 -8.671875 6.035156 -9.039062 4.953125 -9.4375 C 3.878906 -9.84375 2.953125 -10.484375 2.171875 -11.359375 C 1.398438 -12.234375 1.015625 -13.414062 1.015625 -14.90625 C 1.015625 -16.207031 1.367188 -17.382812 2.078125 -18.4375 C 2.796875 -19.488281 3.863281 -20.320312 5.28125 -20.9375 C 6.695312 -21.550781 8.4375 -21.859375 10.5 -21.859375 C 11.90625 -21.859375 13.289062 -21.695312 14.65625 -21.375 C 16.03125 -21.0625 17.238281 -20.597656 18.28125 -19.984375 L 16.40625 -15.484375 C 14.363281 -16.585938 12.382812 -17.140625 10.46875 -17.140625 C 9.257812 -17.140625 8.378906 -16.957031 7.828125 -16.59375 C 7.285156 -16.238281 7.015625 -15.78125 7.015625 -15.21875 C 7.015625 -14.644531 7.335938 -14.210938 7.984375 -13.921875 C 8.640625 -13.640625 9.691406 -13.347656 11.140625 -13.046875 C 12.773438 -12.691406 14.125 -12.316406 15.1875 -11.921875 C 16.257812 -11.523438 17.1875 -10.890625 17.96875 -10.015625 C 18.757812 -9.148438 19.15625 -7.972656 19.15625 -6.484375 C 19.15625 -5.203125 18.796875 -4.039062 18.078125 -3 C 17.367188 -1.957031 16.300781 -1.125 14.875 -0.5 C 13.445312 0.113281 11.710938 0.421875 9.671875 0.421875 Z M 9.671875 0.421875 "/></g></g><g style="fill:rgb(100%,100%,100%);fill-opacity:1;"><g transform="translate(140.841305, 270.160749)"><path style="stroke:none;" d="M 18.828125 -8.265625 C 18.828125 -8.222656 18.796875 -7.742188 18.734375 -6.828125 L 6.671875 -6.828125 C 6.921875 -5.972656 7.394531 -5.3125 8.09375 -4.84375 C 8.800781 -4.382812 9.6875 -4.15625 10.75 -4.15625 C 11.539062 -4.15625 12.226562 -4.269531 12.8125 -4.5 C 13.394531 -4.726562 13.976562 -5.09375 14.5625 -5.59375 L 17.625 -2.421875 C 16.019531 -0.617188 13.664062 0.28125 10.5625 0.28125 C 8.625 0.28125 6.921875 -0.0820312 5.453125 -0.8125 C 3.984375 -1.550781 2.84375 -2.570312 2.03125 -3.875 C 1.226562 -5.1875 0.828125 -6.671875 0.828125 -8.328125 C 0.828125 -9.960938 1.21875 -11.425781 2 -12.71875 C 2.789062 -14.007812 3.878906 -15.019531 5.265625 -15.75 C 6.648438 -16.488281 8.210938 -16.859375 9.953125 -16.859375 C 11.597656 -16.859375 13.09375 -16.515625 14.4375 -15.828125 C 15.789062 -15.148438 16.859375 -14.160156 17.640625 -12.859375 C 18.429688 -11.566406 18.828125 -10.035156 18.828125 -8.265625 Z M 9.984375 -12.734375 C 9.078125 -12.734375 8.320312 -12.476562 7.71875 -11.96875 C 7.125 -11.457031 6.742188 -10.765625 6.578125 -9.890625 L 13.375 -9.890625 C 13.207031 -10.765625 12.820312 -11.457031 12.21875 -11.96875 C 11.625 -12.476562 10.878906 -12.734375 9.984375 -12.734375 Z M 9.984375 -12.734375 "/></g></g><g style="fill:rgb(100%,100%,100%);fill-opacity:1;"><g transform="translate(160.492022, 270.160749)"><path style="stroke:none;" d="M 19.71875 -16.59375 L 19.71875 -3.03125 C 19.71875 0.0507812 18.878906 2.363281 17.203125 3.90625 C 15.523438 5.445312 13.117188 6.21875 9.984375 6.21875 C 8.347656 6.21875 6.816406 6.03125 5.390625 5.65625 C 3.960938 5.289062 2.75 4.753906 1.75 4.046875 L 3.859375 -0.03125 C 4.523438 0.519531 5.375 0.953125 6.40625 1.265625 C 7.4375 1.585938 8.453125 1.75 9.453125 1.75 C 10.984375 1.75 12.101562 1.410156 12.8125 0.734375 C 13.53125 0.0546875 13.890625 -0.941406 13.890625 -2.265625 L 13.890625 -2.8125 C 12.773438 -1.507812 11.132812 -0.859375 8.96875 -0.859375 C 7.5 -0.859375 6.140625 -1.1875 4.890625 -1.84375 C 3.648438 -2.507812 2.660156 -3.445312 1.921875 -4.65625 C 1.191406 -5.875 0.828125 -7.28125 0.828125 -8.875 C 0.828125 -10.445312 1.191406 -11.835938 1.921875 -13.046875 C 2.660156 -14.265625 3.648438 -15.203125 4.890625 -15.859375 C 6.140625 -16.523438 7.5 -16.859375 8.96875 -16.859375 C 11.332031 -16.859375 13.066406 -16.09375 14.171875 -14.5625 L 14.171875 -16.59375 Z M 10.34375 -5.484375 C 11.382812 -5.484375 12.242188 -5.796875 12.921875 -6.421875 C 13.609375 -7.054688 13.953125 -7.875 13.953125 -8.875 C 13.953125 -9.875 13.613281 -10.6875 12.9375 -11.3125 C 12.269531 -11.9375 11.40625 -12.25 10.34375 -12.25 C 9.28125 -12.25 8.40625 -11.9375 7.71875 -11.3125 C 7.039062 -10.6875 6.703125 -9.875 6.703125 -8.875 C 6.703125 -7.875 7.046875 -7.054688 7.734375 -6.421875 C 8.429688 -5.796875 9.300781 -5.484375 10.34375 -5.484375 Z M 10.34375 -5.484375 "/></g></g><g style="fill:rgb(100%,100%,100%);fill-opacity:1;"><g transform="translate(182.071072, 270.160749)"><path style="stroke:none;" d="M 19.3125 -16.59375 L 19.3125 0 L 13.78125 0 L 13.78125 -1.78125 C 13.164062 -1.101562 12.425781 -0.585938 11.5625 -0.234375 C 10.707031 0.109375 9.800781 0.28125 8.84375 0.28125 C 6.695312 0.28125 4.988281 -0.347656 3.71875 -1.609375 C 2.445312 -2.878906 1.8125 -4.78125 1.8125 -7.3125 L 1.8125 -16.59375 L 7.625 -16.59375 L 7.625 -8.265625 C 7.625 -7.015625 7.859375 -6.101562 8.328125 -5.53125 C 8.796875 -4.96875 9.476562 -4.6875 10.375 -4.6875 C 11.289062 -4.6875 12.039062 -5.003906 12.625 -5.640625 C 13.207031 -6.285156 13.5 -7.269531 13.5 -8.59375 L 13.5 -16.59375 Z M 19.3125 -16.59375 "/></g></g><g style="fill:rgb(100%,100%,100%);fill-opacity:1;"><g transform="translate(203.252217, 270.160749)"><path style="stroke:none;" d="M 7.40625 -14.59375 C 8 -15.351562 8.769531 -15.921875 9.71875 -16.296875 C 10.664062 -16.671875 11.753906 -16.859375 12.984375 -16.859375 L 12.984375 -11.625 C 12.453125 -11.6875 12.007812 -11.71875 11.65625 -11.71875 C 10.414062 -11.71875 9.441406 -11.378906 8.734375 -10.703125 C 8.035156 -10.035156 7.6875 -9.007812 7.6875 -7.625 L 7.6875 0 L 1.859375 0 L 1.859375 -16.59375 L 7.40625 -16.59375 Z M 7.40625 -14.59375 "/></g></g><g style="fill:rgb(100%,100%,100%);fill-opacity:1;"><g transform="translate(216.811818, 270.160749)"><path style="stroke:none;" d="M 10.1875 0.28125 C 8.414062 0.28125 6.816406 -0.0820312 5.390625 -0.8125 C 3.960938 -1.550781 2.84375 -2.570312 2.03125 -3.875 C 1.226562 -5.1875 0.828125 -6.671875 0.828125 -8.328125 C 0.828125 -9.960938 1.226562 -11.429688 2.03125 -12.734375 C 2.84375 -14.035156 3.957031 -15.046875 5.375 -15.765625 C 6.789062 -16.492188 8.394531 -16.859375 10.1875 -16.859375 C 11.988281 -16.859375 13.601562 -16.492188 15.03125 -15.765625 C 16.457031 -15.046875 17.566406 -14.039062 18.359375 -12.75 C 19.160156 -11.457031 19.5625 -9.984375 19.5625 -8.328125 C 19.5625 -6.671875 19.160156 -5.1875 18.359375 -3.875 C 17.566406 -2.570312 16.457031 -1.550781 15.03125 -0.8125 C 13.601562 -0.0820312 11.988281 0.28125 10.1875 0.28125 Z M 10.1875 -4.34375 C 11.207031 -4.34375 12.046875 -4.691406 12.703125 -5.390625 C 13.359375 -6.097656 13.6875 -7.078125 13.6875 -8.328125 C 13.6875 -9.546875 13.359375 -10.503906 12.703125 -11.203125 C 12.046875 -11.898438 11.207031 -12.25 10.1875 -12.25 C 9.164062 -12.25 8.328125 -11.898438 7.671875 -11.203125 C 7.023438 -10.503906 6.703125 -9.546875 6.703125 -8.328125 C 6.703125 -7.078125 7.023438 -6.097656 7.671875 -5.390625 C 8.328125 -4.691406 9.164062 -4.34375 10.1875 -4.34375 Z M 10.1875 -4.34375 "/></g></g><g style="fill:rgb(100%,100%,100%);fill-opacity:1;"><g transform="translate(237.197138, 270.160749)"><path style="stroke:none;" d="M 7.890625 0.28125 C 6.503906 0.28125 5.140625 0.125 3.796875 -0.1875 C 2.453125 -0.507812 1.367188 -0.925781 0.546875 -1.4375 L 2.296875 -5.421875 C 3.046875 -4.953125 3.941406 -4.578125 4.984375 -4.296875 C 6.023438 -4.023438 7.054688 -3.890625 8.078125 -3.890625 C 9.015625 -3.890625 9.679688 -3.984375 10.078125 -4.171875 C 10.484375 -4.367188 10.6875 -4.648438 10.6875 -5.015625 C 10.6875 -5.390625 10.445312 -5.648438 9.96875 -5.796875 C 9.488281 -5.953125 8.726562 -6.101562 7.6875 -6.25 C 6.351562 -6.40625 5.222656 -6.613281 4.296875 -6.875 C 3.367188 -7.144531 2.566406 -7.632812 1.890625 -8.34375 C 1.222656 -9.0625 0.890625 -10.066406 0.890625 -11.359375 C 0.890625 -12.421875 1.203125 -13.363281 1.828125 -14.1875 C 2.460938 -15.007812 3.382812 -15.660156 4.59375 -16.140625 C 5.8125 -16.617188 7.269531 -16.859375 8.96875 -16.859375 C 10.175781 -16.859375 11.367188 -16.734375 12.546875 -16.484375 C 13.734375 -16.242188 14.722656 -15.898438 15.515625 -15.453125 L 13.78125 -11.515625 C 12.3125 -12.328125 10.71875 -12.734375 9 -12.734375 C 8.082031 -12.734375 7.410156 -12.625 6.984375 -12.40625 C 6.554688 -12.195312 6.34375 -11.921875 6.34375 -11.578125 C 6.34375 -11.179688 6.578125 -10.90625 7.046875 -10.75 C 7.515625 -10.601562 8.285156 -10.445312 9.359375 -10.28125 C 10.734375 -10.082031 11.867188 -9.847656 12.765625 -9.578125 C 13.660156 -9.316406 14.4375 -8.832031 15.09375 -8.125 C 15.757812 -7.425781 16.09375 -6.441406 16.09375 -5.171875 C 16.09375 -4.128906 15.773438 -3.191406 15.140625 -2.359375 C 14.515625 -1.535156 13.582031 -0.890625 12.34375 -0.421875 C 11.113281 0.046875 9.628906 0.28125 7.890625 0.28125 Z M 7.890625 0.28125 "/></g></g></g></svg>