<?xml version="1.0" encoding="UTF-8"?><svg xmlns="http://www.w3.org/2000/svg" xmlns:xlink="http://www.w3.org/1999/xlink" width="375pt" zoomAndPan="magnify" viewBox="0 0 375 374.999991" height="374.999991pt" preserveAspectRatio="xMidYMid meet" version="1.2"><defs><clipPath xml:id="clip1" id="clip1"><path d="M 140.859375 135.570312 L 233.859375 135.570312 L 233.859375 239.070312 L 140.859375 239.070312 Z M 140.859375 135.570312 "/></clipPath><clipPath xml:id="clip2" id="clip2"><path d="M 187 135.570312 L 233.859375 135.570312 L 233.859375 239.070312 L 187 239.070312 Z M 187 135.570312 "/></clipPath></defs><g xml:id="surface1" id="surface1"><rect x="0" width="375" y="0" height="374.999991" style="fill:rgb(100%,100%,100%);fill-opacity:1;stroke:none;"/><rect x="0" width="375" y="0" height="374.999991" style="fill:rgb(100%,100%,100%);fill-opacity:1;stroke:none;"/><rect x="0" width="375" y="0" height="374.999991" style="fill:rgb(9.408569%,4.708862%,26.669312%);fill-opacity:1;stroke:none;"/><g clip-rule="nonzero" clip-path="url(#clip1)"><path style=" stroke:none;fill-rule:nonzero;fill:rgb(0%,29.019165%,67.83905%);fill-opacity:1;" d="M 233.832031 153.6875 L 233.832031 192.628906 C 232.457031 227.472656 187.347656 239.09375 187.347656 239.09375 C 187.347656 239.09375 142.238281 227.472656 140.886719 192.628906 L 140.886719 153.6875 L 187.347656 135.585938 Z M 233.832031 153.6875 "/></g><g clip-rule="nonzero" clip-path="url(#clip2)"><path style=" stroke:none;fill-rule:nonzero;fill:rgb(21.958923%,71.369934%,100%);fill-opacity:1;" d="M 233.832031 153.6875 L 233.832031 192.628906 C 232.457031 227.472656 187.347656 239.09375 187.347656 239.09375 L 187.347656 135.585938 Z M 233.832031 153.6875 "/></g><path style=" stroke:none;fill-rule:nonzero;fill:rgb(21.958923%,71.369934%,100%);fill-opacity:1;" d="M 221.621094 162.527344 L 221.621094 191.238281 C 220.609375 216.929688 187.351562 225.496094 187.351562 225.496094 C 187.351562 225.496094 154.09375 216.929688 153.09375 191.238281 L 153.09375 162.527344 L 187.351562 149.183594 Z M 221.621094 162.527344 "/><path style=" stroke:none;fill-rule:nonzero;fill:rgb(0%,29.019165%,67.83905%);fill-opacity:1;" d="M 221.621094 162.527344 L 221.621094 191.238281 C 220.609375 216.929688 187.351562 225.496094 187.351562 225.496094 L 187.351562 149.183594 Z M 221.621094 162.527344 "/></g></svg>